<svg width="236" height="28" viewBox="0 0 236 28" fill="none" xmlns="http://www.w3.org/2000/svg">
<path d="M0.88 27V0.999999H7.76V10.68H7.92L14.48 0.999999H22L14.24 11.56L23.52 27H16L10.24 17L7.76 20.52V27H0.88ZM25.9972 27V0.999999H32.8772V10.68H40.6372V0.999999H47.5172V27H40.6372V16.68H32.8772V27H25.9972ZM63.9028 27.48C60.2761 27.48 57.5695 26.4133 55.7828 24.28C53.9961 22.1467 53.1028 18.8667 53.1028 14.44V0.999999H59.9828V15.24C59.9828 17.56 60.2895 19.2 60.9028 20.16C61.5428 21.0933 62.5428 21.56 63.9028 21.56C65.2628 21.56 66.2628 21.0933 66.9028 20.16C67.5695 19.2 67.9028 17.56 67.9028 15.24V0.999999H74.5428V14.44C74.5428 18.8667 73.6761 22.1467 71.9428 24.28C70.2361 26.4133 67.5561 27.48 63.9028 27.48ZM80.1378 27V0.999999H89.4978C91.3111 0.999999 92.9645 1.18667 94.4578 1.56C95.9511 1.93333 97.1378 2.58667 98.0178 3.52C98.8978 4.45333 99.3378 5.77333 99.3378 7.48C99.3378 8.6 99.0445 9.72 98.4578 10.84C97.8711 11.9333 97.0711 12.68 96.0578 13.08V13.24C97.3111 13.5867 98.3645 14.2533 99.2178 15.24C100.098 16.2267 100.538 17.5867 100.538 19.32C100.538 21.1067 100.071 22.5733 99.1378 23.72C98.2045 24.84 96.9645 25.6667 95.4178 26.2C93.8711 26.7333 92.1645 27 90.2978 27H80.1378ZM87.0178 11.16H89.3378C90.4578 11.16 91.2845 10.92 91.8178 10.44C92.3511 9.96 92.6178 9.32 92.6178 8.52C92.6178 7.72 92.3511 7.14667 91.8178 6.8C91.2845 6.45333 90.4578 6.28 89.3378 6.28H87.0178V11.16ZM87.0178 21.72H89.8178C92.4845 21.72 93.8178 20.76 93.8178 18.84C93.8178 17.88 93.4845 17.2 92.8178 16.8C92.1778 16.4 91.1778 16.2 89.8178 16.2H87.0178V21.72ZM104.63 27V0.999999H111.99L115.91 11.64C116.15 12.36 116.377 13.1067 116.59 13.88C116.803 14.6533 117.03 15.4267 117.27 16.2H117.43C117.67 15.4267 117.897 14.6533 118.11 13.88C118.323 13.1067 118.55 12.36 118.79 11.64L122.55 0.999999H129.91V27H123.67V19.32C123.67 18.44 123.723 17.4533 123.83 16.36C123.937 15.24 124.057 14.12 124.19 13C124.323 11.88 124.443 10.8933 124.55 10.04H124.39L122.23 16.28L119.03 24.88H115.35L112.15 16.28L110.07 10.04H109.91C110.017 10.8933 110.137 11.88 110.27 13C110.403 14.12 110.523 15.24 110.63 16.36C110.737 17.4533 110.79 18.44 110.79 19.32V27H104.63ZM146.645 27.48C144.245 27.48 142.138 26.9467 140.325 25.88C138.511 24.7867 137.098 23.2267 136.085 21.2C135.071 19.1733 134.565 16.7333 134.565 13.88C134.565 11.0267 135.071 8.61333 136.085 6.64C137.098 4.64 138.511 3.12 140.325 2.08C142.138 1.04 144.245 0.519998 146.645 0.519998C149.045 0.519998 151.151 1.04 152.965 2.08C154.778 3.12 156.191 4.64 157.205 6.64C158.218 8.61333 158.725 11.0267 158.725 13.88C158.725 16.7333 158.218 19.1733 157.205 21.2C156.191 23.2267 154.778 24.7867 152.965 25.88C151.151 26.9467 149.045 27.48 146.645 27.48ZM146.645 21.56C148.218 21.56 149.445 20.8667 150.325 19.48C151.231 18.0933 151.685 16.2267 151.685 13.88C151.685 11.5067 151.231 9.68 150.325 8.4C149.445 7.09333 148.218 6.44 146.645 6.44C145.098 6.44 143.871 7.09333 142.965 8.4C142.058 9.68 141.605 11.5067 141.605 13.88C141.605 16.2267 142.058 18.0933 142.965 19.48C143.871 20.8667 145.098 21.56 146.645 21.56ZM174.02 27.48C170.393 27.48 167.687 26.4133 165.9 24.28C164.113 22.1467 163.22 18.8667 163.22 14.44V0.999999H170.1V15.24C170.1 17.56 170.407 19.2 171.02 20.16C171.66 21.0933 172.66 21.56 174.02 21.56C175.38 21.56 176.38 21.0933 177.02 20.16C177.687 19.2 178.02 17.56 178.02 15.24V0.999999H184.66V14.44C184.66 18.8667 183.793 22.1467 182.06 24.28C180.353 26.4133 177.673 27.48 174.02 27.48ZM190.255 27V0.999999H197.295L203.055 12.6L205.535 18.44H205.695C205.535 17.0267 205.348 15.4267 205.135 13.64C204.922 11.8267 204.815 10.12 204.815 8.52V0.999999H211.375V27H204.335L198.575 15.36L196.095 9.56H195.935C196.095 11.0267 196.282 12.6533 196.495 14.44C196.708 16.2 196.815 17.88 196.815 19.48V27H190.255ZM222.09 27V6.76H215.21V0.999999H235.85V6.76H228.97V27H222.09Z" fill="white"/>
</svg>
