<svg width="285" height="38" viewBox="0 0 285 38" fill="none" xmlns="http://www.w3.org/2000/svg">
<path d="M48.88 33V7H55.76V16.68H55.92L62.48 7H70L62.24 17.56L71.52 33H64L58.24 23L55.76 26.52V33H48.88ZM73.9972 33V7H80.8772V16.68H88.6372V7H95.5172V33H88.6372V22.68H80.8772V33H73.9972ZM111.903 33.48C108.276 33.48 105.569 32.4133 103.783 30.28C101.996 28.1467 101.103 24.8667 101.103 20.44V7H107.983V21.24C107.983 23.56 108.289 25.2 108.903 26.16C109.543 27.0933 110.543 27.56 111.903 27.56C113.263 27.56 114.263 27.0933 114.903 26.16C115.569 25.2 115.903 23.56 115.903 21.24V7H122.543V20.44C122.543 24.8667 121.676 28.1467 119.943 30.28C118.236 32.4133 115.556 33.48 111.903 33.48ZM128.138 33V7H137.498C139.311 7 140.964 7.18667 142.458 7.56C143.951 7.93333 145.138 8.58667 146.018 9.52C146.898 10.4533 147.338 11.7733 147.338 13.48C147.338 14.6 147.044 15.72 146.458 16.84C145.871 17.9333 145.071 18.68 144.058 19.08V19.24C145.311 19.5867 146.364 20.2533 147.218 21.24C148.098 22.2267 148.538 23.5867 148.538 25.32C148.538 27.1067 148.071 28.5733 147.138 29.72C146.204 30.84 144.964 31.6667 143.418 32.2C141.871 32.7333 140.164 33 138.298 33H128.138ZM135.018 17.16H137.338C138.458 17.16 139.284 16.92 139.818 16.44C140.351 15.96 140.618 15.32 140.618 14.52C140.618 13.72 140.351 13.1467 139.818 12.8C139.284 12.4533 138.458 12.28 137.338 12.28H135.018V17.16ZM135.018 27.72H137.818C140.484 27.72 141.818 26.76 141.818 24.84C141.818 23.88 141.484 23.2 140.818 22.8C140.178 22.4 139.178 22.2 137.818 22.2H135.018V27.72ZM152.63 33V7H159.99L163.91 17.64C164.15 18.36 164.377 19.1067 164.59 19.88C164.803 20.6533 165.03 21.4267 165.27 22.2H165.43C165.67 21.4267 165.897 20.6533 166.11 19.88C166.323 19.1067 166.55 18.36 166.79 17.64L170.55 7H177.91V33H171.67V25.32C171.67 24.44 171.723 23.4533 171.83 22.36C171.937 21.24 172.057 20.12 172.19 19C172.323 17.88 172.443 16.8933 172.55 16.04H172.39L170.23 22.28L167.03 30.88H163.35L160.15 22.28L158.07 16.04H157.91C158.017 16.8933 158.137 17.88 158.27 19C158.403 20.12 158.523 21.24 158.63 22.36C158.737 23.4533 158.79 24.44 158.79 25.32V33H152.63ZM194.645 33.48C192.245 33.48 190.138 32.9467 188.325 31.88C186.511 30.7867 185.098 29.2267 184.085 27.2C183.071 25.1733 182.565 22.7333 182.565 19.88C182.565 17.0267 183.071 14.6133 184.085 12.64C185.098 10.64 186.511 9.12 188.325 8.08C190.138 7.04 192.245 6.52 194.645 6.52C197.045 6.52 199.151 7.04 200.965 8.08C202.778 9.12 204.191 10.64 205.205 12.64C206.218 14.6133 206.725 17.0267 206.725 19.88C206.725 22.7333 206.218 25.1733 205.205 27.2C204.191 29.2267 202.778 30.7867 200.965 31.88C199.151 32.9467 197.045 33.48 194.645 33.48ZM194.645 27.56C196.218 27.56 197.445 26.8667 198.325 25.48C199.231 24.0933 199.685 22.2267 199.685 19.88C199.685 17.5067 199.231 15.68 198.325 14.4C197.445 13.0933 196.218 12.44 194.645 12.44C193.098 12.44 191.871 13.0933 190.965 14.4C190.058 15.68 189.605 17.5067 189.605 19.88C189.605 22.2267 190.058 24.0933 190.965 25.48C191.871 26.8667 193.098 27.56 194.645 27.56ZM222.02 33.48C218.393 33.48 215.687 32.4133 213.9 30.28C212.113 28.1467 211.22 24.8667 211.22 20.44V7H218.1V21.24C218.1 23.56 218.407 25.2 219.02 26.16C219.66 27.0933 220.66 27.56 222.02 27.56C223.38 27.56 224.38 27.0933 225.02 26.16C225.687 25.2 226.02 23.56 226.02 21.24V7H232.66V20.44C232.66 24.8667 231.793 28.1467 230.06 30.28C228.353 32.4133 225.673 33.48 222.02 33.48ZM238.255 33V7H245.295L251.055 18.6L253.535 24.44H253.695C253.535 23.0267 253.348 21.4267 253.135 19.64C252.922 17.8267 252.815 16.12 252.815 14.52V7H259.375V33H252.335L246.575 21.36L244.095 15.56H243.935C244.095 17.0267 244.282 18.6533 244.495 20.44C244.708 22.2 244.815 23.88 244.815 25.48V33H238.255ZM270.09 33V12.76H263.21V7H283.85V12.76H276.97V33H270.09Z" fill="white"/>
<circle cx="19" cy="19" r="19" fill="white"/>
</svg>
